<svg width="44" height="54" viewBox="0 0 44 54" fill="none" xmlns="http://www.w3.org/2000/svg">
<path d="M38 20.113V14.5C38 6.505 30.822 0 22 0C13.178 0 6 6.505 6 14.5V20.113C2.599 20.699 0 23.663 0 27.23V46.772C0 50.757 3.243 54 7.229 54H36.771C40.757 54 44 50.757 44 46.771V27.229C44 23.663 41.401 20.699 38 20.113ZM8 14.5C8 7.607 14.28 2 22 2C29.72 2 36 7.607 36 14.5V20H8V14.5ZM42 46.771C42 49.654 39.654 52 36.771 52H7.229C4.346 52 2 49.654 2 46.771V27.229C2 24.346 4.346 22 7.229 22H36.771C39.654 22 42 24.346 42 27.229V46.771Z" fill="black"/>
<path d="M22 28.0002C19.794 28.0002 18 29.7942 18 32.0002V38.0002C18 40.2062 19.794 42.0002 22 42.0002C24.206 42.0002 26 40.2062 26 38.0002V32.0002C26 29.7942 24.206 28.0002 22 28.0002ZM24 38.0002C24 39.1032 23.103 40.0002 22 40.0002C20.897 40.0002 20 39.1032 20 38.0002V32.0002C20 30.8972 20.897 30.0002 22 30.0002C23.103 30.0002 24 30.8972 24 32.0002V38.0002Z" fill="black"/>
</svg>
