<svg width="26" height="29" viewBox="0 0 26 29" fill="none" xmlns="http://www.w3.org/2000/svg">
<g clip-path="url(#clip0)">
<g clip-path="url(#clip1)">
<path d="M23.4571 14.4397H2.54286C1.68571 14.4397 1 13.7609 1 12.9124V9.48455C1 8.63606 1.68571 7.95728 2.54286 7.95728H23.4914C24.3486 7.95728 25.0343 8.63606 25.0343 9.48455V12.9124C25 13.727 24.3143 14.4397 23.4571 14.4397ZM2.54286 9.24697C2.40571 9.24697 2.33714 9.34879 2.33714 9.45061V12.8785C2.33714 13.0142 2.44 13.0821 2.54286 13.0821H23.4914C23.6286 13.0821 23.6971 12.9803 23.6971 12.8785V9.48455C23.6971 9.34879 23.5943 9.28091 23.4914 9.28091H2.54286V9.24697Z" fill="#FF7905"/>
<path d="M21.5715 28.9999H4.4286C3.57146 28.9999 2.88574 28.3211 2.88574 27.4726V13.9647C2.88574 13.5914 3.19431 13.3199 3.53717 13.3199C3.91431 13.3199 4.1886 13.6253 4.1886 13.9647V27.5066C4.1886 27.6423 4.29146 27.7102 4.39431 27.7102H21.5372C21.6743 27.7102 21.7429 27.6084 21.7429 27.5066V13.9647C21.7429 13.5914 22.0515 13.3199 22.3943 13.3199C22.7715 13.3199 23.0457 13.6253 23.0457 13.9647V27.5066C23.1143 28.3211 22.4286 28.9999 21.5715 28.9999Z" fill="#FF7905"/>
<path d="M18.2114 9.07747C18.2114 9.07747 20.4057 9.38293 22.0514 7.68596C23.6972 5.98899 23.7657 4.97081 23.1143 4.29202C22.4629 3.61323 22.12 2.9005 22.1543 2.32353C22.1886 1.74656 22.2914 1.10172 20.44 0.999898C18.5886 0.89808 16.1886 1.84838 13.8229 5.41202H13H12.1429C9.81145 1.84838 7.37716 0.89808 5.52573 0.999898C3.6743 1.10172 3.77716 1.74656 3.81145 2.32353C3.84573 2.9005 3.50287 3.61323 2.85145 4.29202C2.20002 4.97081 2.2343 5.98899 3.9143 7.68596C5.56002 9.38293 7.7543 9.07747 7.7543 9.07747C4.70287 10.1296 3.1943 14.1684 3.1943 14.1684L6.96573 16.8496C8.68002 11.6908 11.4229 9.34899 11.4229 9.34899H13H14.5429C14.5429 9.34899 17.2857 11.7247 19 16.8496L22.7714 14.1684C22.7714 14.1684 21.2629 10.1296 18.2114 9.07747ZM10.6 7.48232C10.6 7.48232 7.0343 5.34414 3.88002 5.10656C3.88002 5.10656 4.8743 4.1902 4.90859 2.56111C4.90859 2.56111 7.48002 1.27141 11.1143 5.78535C11.1486 5.78535 10.4286 6.46414 10.6 7.48232ZM14.2686 7.88959H13H11.7314C11.2514 6.97323 11.8686 6.36232 11.8686 6.36232H13H14.0972C14.0972 6.36232 14.7486 6.97323 14.2686 7.88959ZM14.8514 5.78535C18.52 1.30535 21.0914 2.59505 21.0914 2.59505C21.1257 4.22414 22.12 5.1405 22.12 5.1405C18.9657 5.34414 15.4 7.51626 15.4 7.51626C15.5714 6.46414 14.8514 5.78535 14.8514 5.78535Z" fill="#FF7905"/>
<path d="M14.7487 13.9309H11.2173V28.1515H14.7487V13.9309Z" fill="#FF7905"/>
<path d="M14.7487 8.94202H11.2173V13.7275H14.7487V8.94202Z" fill="#FF7905"/>
</g>
</g>
<defs>
<clipPath id="clip0">
<rect width="26" height="29" fill="white" transform="translate(0 -0.000244141)"/>
</clipPath>
<clipPath id="clip1">
<rect width="24" height="28" fill="white" transform="translate(1 0.999756)"/>
</clipPath>
</defs>
</svg>
